<svg width="41" height="41" viewBox="0 0 41 41" fill="none" xmlns="http://www.w3.org/2000/svg">
<g filter="url(#filter0_i_233_639)">
<path d="M20.5 6.83337C22.3123 6.83337 24.0504 7.55331 25.3319 8.83481C26.6134 10.1163 27.3333 11.8544 27.3333 13.6667C27.3333 15.479 26.6134 17.2171 25.3319 18.4986C24.0504 19.7801 22.3123 20.5 20.5 20.5C18.6877 20.5 16.9496 19.7801 15.6681 18.4986C14.3866 17.2171 13.6667 15.479 13.6667 13.6667C13.6667 11.8544 14.3866 10.1163 15.6681 8.83481C16.9496 7.55331 18.6877 6.83337 20.5 6.83337ZM20.5 23.9167C28.0508 23.9167 34.1667 26.9746 34.1667 30.75V34.1667H6.83334V30.75C6.83334 26.9746 12.9492 23.9167 20.5 23.9167Z" fill="#36D39A"/>
</g>
<defs>
<filter id="filter0_i_233_639" x="0" y="0" width="41" height="45" filterUnits="userSpaceOnUse" color-interpolation-filters="sRGB">
<feFlood flood-opacity="0" result="BackgroundImageFix"/>
<feBlend mode="normal" in="SourceGraphic" in2="BackgroundImageFix" result="shape"/>
<feColorMatrix in="SourceAlpha" type="matrix" values="0 0 0 0 0 0 0 0 0 0 0 0 0 0 0 0 0 0 127 0" result="hardAlpha"/>
<feOffset dy="4"/>
<feGaussianBlur stdDeviation="2"/>
<feComposite in2="hardAlpha" operator="arithmetic" k2="-1" k3="1"/>
<feColorMatrix type="matrix" values="0 0 0 0 0 0 0 0 0 0 0 0 0 0 0 0 0 0 0.25 0"/>
<feBlend mode="normal" in2="shape" result="effect1_innerShadow_233_639"/>
</filter>
</defs>
</svg>
