<svg width="18" height="18" viewBox="0 0 18 18" fill="none" xmlns="http://www.w3.org/2000/svg">
<path d="M14.6355 3.36445C13.1484 1.87735 10.742 1.87735 9.25663 3.36445L7.55331 5.06777L8.4498 5.96426L10.1531 4.26094C11.0988 3.31524 12.6949 3.21504 13.7391 4.26094C14.785 5.30684 14.6848 6.90117 13.7391 7.84688L12.0357 9.5502L12.934 10.4484L14.6373 8.74512C16.1209 7.25801 16.1209 4.85156 14.6355 3.36445ZM7.84863 13.7391C6.90292 14.6848 5.30683 14.785 4.26269 13.7391C3.21679 12.6932 3.31699 11.0988 4.26269 10.1531L5.96601 8.44981L5.06777 7.55156L3.36445 9.25488C1.87734 10.742 1.87734 13.1484 3.36445 14.6338C4.85156 16.1191 7.258 16.1209 8.74335 14.6338L10.4467 12.9305L9.55019 12.034L7.84863 13.7391ZM4.57558 3.68086C4.54915 3.65469 4.51346 3.64001 4.47626 3.64001C4.43907 3.64001 4.40338 3.65469 4.37695 3.68086L3.68085 4.37695C3.65468 4.40338 3.64 4.43908 3.64 4.47627C3.64 4.51347 3.65468 4.54916 3.68085 4.57559L13.4262 14.3209C13.4807 14.3754 13.5703 14.3754 13.6248 14.3209L14.3209 13.6248C14.3754 13.5703 14.3754 13.4807 14.3209 13.4262L4.57558 3.68086Z" fill="white"/>
</svg>
