<svg width="43" height="44" viewBox="0 0 43 44" fill="none" xmlns="http://www.w3.org/2000/svg">
<g filter="url(#filter0_d_233_647)">
<path d="M21.5 5.125C21.5 5.125 10.9323 14.2475 5.02656 19.188C4.83864 19.3517 4.68724 19.5532 4.58217 19.7792C4.4771 20.0052 4.42072 20.2508 4.41669 20.5C4.41669 20.9531 4.59667 21.3876 4.91705 21.708C5.23742 22.0283 5.67194 22.2083 6.12502 22.2083H9.54169V34.1667C9.54169 34.6197 9.72167 35.0543 10.042 35.3746C10.3624 35.695 10.7969 35.875 11.25 35.875H16.375C16.8281 35.875 17.2626 35.695 17.583 35.3746C17.9034 35.0543 18.0834 34.6197 18.0834 34.1667V27.3333H24.9167V34.1667C24.9167 34.6197 25.0967 35.0543 25.417 35.3746C25.7374 35.695 26.1719 35.875 26.625 35.875H31.75C32.2031 35.875 32.6376 35.695 32.958 35.3746C33.2784 35.0543 33.4584 34.6197 33.4584 34.1667V22.2083H36.875C37.3281 22.2083 37.7626 22.0283 38.083 21.708C38.4034 21.3876 38.5834 20.9531 38.5834 20.5C38.581 20.246 38.5208 19.9959 38.4075 19.7686C38.2941 19.5413 38.1305 19.3427 37.9291 19.188C32.0644 14.2475 21.5 5.125 21.5 5.125Z" fill="white"/>
</g>
<defs>
<filter id="filter0_d_233_647" x="-3" y="0" width="49" height="49" filterUnits="userSpaceOnUse" color-interpolation-filters="sRGB">
<feFlood flood-opacity="0" result="BackgroundImageFix"/>
<feColorMatrix in="SourceAlpha" type="matrix" values="0 0 0 0 0 0 0 0 0 0 0 0 0 0 0 0 0 0 127 0" result="hardAlpha"/>
<feOffset dy="4"/>
<feGaussianBlur stdDeviation="2"/>
<feComposite in2="hardAlpha" operator="out"/>
<feColorMatrix type="matrix" values="0 0 0 0 0 0 0 0 0 0 0 0 0 0 0 0 0 0 0.25 0"/>
<feBlend mode="normal" in2="BackgroundImageFix" result="effect1_dropShadow_233_647"/>
<feBlend mode="normal" in="SourceGraphic" in2="effect1_dropShadow_233_647" result="shape"/>
</filter>
</defs>
</svg>
