<svg width="18" height="18" viewBox="0 0 18 18" fill="none" xmlns="http://www.w3.org/2000/svg">
<path d="M13.4471 2.23256C13.1429 2.2333 12.8418 2.29427 12.5613 2.41195C12.2807 2.52964 12.0262 2.70171 11.8125 2.91825L2.9177 11.8125L2.88282 11.9886L2.26745 15.0823L2.09195 15.9081L2.91826 15.7326L6.01201 15.1172L6.18751 15.0817L15.0823 6.1875C15.2994 5.97415 15.4719 5.71971 15.5896 5.43901C15.7073 5.15831 15.7679 4.85697 15.7679 4.55259C15.7679 4.24821 15.7073 3.94688 15.5896 3.66617C15.4719 3.38547 15.2994 3.13103 15.0823 2.91768C14.8685 2.70118 14.6139 2.52918 14.3333 2.41159C14.0526 2.29399 13.7514 2.23315 13.4471 2.23256ZM13.4471 3.30468C13.7306 3.30468 14.0164 3.43406 14.2909 3.70912C14.8382 4.25587 14.8382 4.84931 14.2909 5.39662L13.887 5.78306L12.2164 4.113L12.6034 3.70912C12.8784 3.43406 13.1636 3.30468 13.4471 3.30468ZM11.4261 4.90443L13.0956 6.5745L6.29326 13.3762C5.92603 12.6577 5.34139 12.0735 4.62264 11.7067L11.4261 4.90443ZM3.90264 12.6214C4.23555 12.7553 4.53795 12.9551 4.79169 13.2089C5.04543 13.4626 5.24527 13.765 5.3792 14.0979L3.53307 14.4669L3.90264 12.6214Z" fill="white"/>
</svg>
