<svg width="18" height="18" viewBox="0 0 18 18" fill="none" xmlns="http://www.w3.org/2000/svg">
<path d="M4.5 1.5C5.45684 1.49974 6.39555 1.76097 7.2147 2.25547C8.03384 2.74998 8.70227 3.45894 9.14775 4.30575C9.59779 3.66981 10.1939 3.15118 10.886 2.79346C11.5781 2.43573 12.3459 2.24936 13.125 2.25H15.75V4.125C15.75 5.41793 15.2364 6.65791 14.3221 7.57215C13.4079 8.48639 12.1679 9 10.875 9H9.75V9.75H13.5V15C13.5 15.3978 13.342 15.7794 13.0607 16.0607C12.7794 16.342 12.3978 16.5 12 16.5H6C5.60218 16.5 5.22064 16.342 4.93934 16.0607C4.65804 15.7794 4.5 15.3978 4.5 15V9.75H8.25V8.25H6.75C5.35761 8.25 4.02226 7.69688 3.03769 6.71231C2.05312 5.72774 1.5 4.39239 1.5 3V1.5H4.5ZM12 11.25H6V15H12V11.25ZM14.25 3.75H13.125C12.2299 3.75 11.3715 4.10558 10.7385 4.73851C10.1056 5.37145 9.75 6.22989 9.75 7.125V7.5H10.875C11.3182 7.5 11.7571 7.4127 12.1666 7.24309C12.576 7.07348 12.9481 6.82488 13.2615 6.51149C13.5749 6.19809 13.8235 5.82603 13.9931 5.41656C14.1627 5.00708 14.25 4.56821 14.25 4.125V3.75ZM4.5 3H3C3 3.99456 3.39509 4.94839 4.09835 5.65165C4.80161 6.35491 5.75544 6.75 6.75 6.75H8.25C8.25 5.75544 7.85491 4.80161 7.15165 4.09835C6.44839 3.39509 5.49456 3 4.5 3Z" fill="white"/>
</svg>
