<svg width="38" height="38" viewBox="0 0 38 38" fill="none" xmlns="http://www.w3.org/2000/svg">
<g filter="url(#filter0_i_233_651)">
<path d="M33.25 4.74996V7.91663C33.25 10.8561 32.0823 13.6752 30.0038 15.7537C27.9252 17.8323 25.1061 19 22.1667 19H20.5833V20.5833H28.5V31.6666C28.5 32.5065 28.1664 33.3119 27.5725 33.9058C26.9786 34.4997 26.1732 34.8333 25.3333 34.8333H12.6667C11.8268 34.8333 11.0214 34.4997 10.4275 33.9058C9.83362 33.3119 9.49999 32.5065 9.49999 31.6666V20.5833H17.4167V15.8333C17.4167 12.8938 18.5844 10.0747 20.6629 7.9962C22.7414 5.91767 25.5605 4.74996 28.5 4.74996H33.25ZM8.70832 3.16663C10.6083 3.16509 12.4808 3.62007 14.1682 4.49326C15.8556 5.36646 17.3086 6.6323 18.4047 8.18421C16.7316 10.3828 15.8281 13.0706 15.8333 15.8333V17.4166H15.0417C11.8922 17.4166 8.87176 16.1655 6.64476 13.9385C4.41777 11.7115 3.16666 8.69108 3.16666 5.54163V3.16663H8.70832Z" fill="#36D39A"/>
</g>
<defs>
<filter id="filter0_i_233_651" x="0" y="0" width="38" height="42" filterUnits="userSpaceOnUse" color-interpolation-filters="sRGB">
<feFlood flood-opacity="0" result="BackgroundImageFix"/>
<feBlend mode="normal" in="SourceGraphic" in2="BackgroundImageFix" result="shape"/>
<feColorMatrix in="SourceAlpha" type="matrix" values="0 0 0 0 0 0 0 0 0 0 0 0 0 0 0 0 0 0 127 0" result="hardAlpha"/>
<feOffset dy="4"/>
<feGaussianBlur stdDeviation="2"/>
<feComposite in2="hardAlpha" operator="arithmetic" k2="-1" k3="1"/>
<feColorMatrix type="matrix" values="0 0 0 0 0 0 0 0 0 0 0 0 0 0 0 0 0 0 0.25 0"/>
<feBlend mode="normal" in2="shape" result="effect1_innerShadow_233_651"/>
</filter>
</defs>
</svg>
