<svg width="39" height="43" viewBox="0 0 39 43" fill="none" xmlns="http://www.w3.org/2000/svg">
<g filter="url(#filter0_d_233_661)">
<path d="M34.25 4.74996V7.91663C34.25 10.8561 33.0823 13.6752 31.0038 15.7537C28.9252 17.8323 26.1061 19 23.1667 19H21.5833V20.5833H29.5V31.6666C29.5 32.5065 29.1664 33.3119 28.5725 33.9058C27.9786 34.4997 27.1732 34.8333 26.3333 34.8333H13.6667C12.8268 34.8333 12.0214 34.4997 11.4275 33.9058C10.8336 33.3119 10.5 32.5065 10.5 31.6666V20.5833H18.4167V15.8333C18.4167 12.8938 19.5844 10.0747 21.6629 7.9962C23.7414 5.91767 26.5605 4.74996 29.5 4.74996H34.25ZM9.70832 3.16663C11.6083 3.16509 13.4808 3.62007 15.1682 4.49326C16.8556 5.36646 18.3086 6.6323 19.4047 8.18421C17.7316 10.3828 16.8281 13.0706 16.8333 15.8333V17.4166H16.0417C12.8922 17.4166 9.87176 16.1655 7.64476 13.9385C5.41777 11.7115 4.16666 8.69108 4.16666 5.54163V3.16663H9.70832Z" fill="white"/>
</g>
<defs>
<filter id="filter0_d_233_661" x="-3" y="0" width="46" height="46" filterUnits="userSpaceOnUse" color-interpolation-filters="sRGB">
<feFlood flood-opacity="0" result="BackgroundImageFix"/>
<feColorMatrix in="SourceAlpha" type="matrix" values="0 0 0 0 0 0 0 0 0 0 0 0 0 0 0 0 0 0 127 0" result="hardAlpha"/>
<feOffset dy="4"/>
<feGaussianBlur stdDeviation="2"/>
<feComposite in2="hardAlpha" operator="out"/>
<feColorMatrix type="matrix" values="0 0 0 0 0 0 0 0 0 0 0 0 0 0 0 0 0 0 0.25 0"/>
<feBlend mode="normal" in2="BackgroundImageFix" result="effect1_dropShadow_233_661"/>
<feBlend mode="normal" in="SourceGraphic" in2="effect1_dropShadow_233_661" result="shape"/>
</filter>
</defs>
</svg>
